<svg xmlns="http://www.w3.org/2000/svg" width="500" height="500">
  <g fill-rule="evenodd">
    <path fill="#62ff62" d="M174 17.244c-14.543 2.31-17.91 2.984-23.6 4.722-6.028 1.842-13.628 4.385-15.8 5.287-.99.41-2.61 1.068-3.6 1.46C90.69 44.71 55.065 78.296 35.872 118.4c-2.632 5.5-5.12 10.625-5.53 11.39-.407.763-.742 1.938-.742 2.61 0 .672-.35 1.847-.775 2.61-.967 1.736-3.22 8.474-4.075 12.19-.354 1.54-1.037 4.24-1.518 6-2.37 8.672-3.882 19.725-4.56 33.3-.507 10.2.63 15.575 1.648 7.786 1.728-13.223 4.624-29.644 5.658-32.086.72-1.702 2.022-1.846 2.022-.224 0 1.788 2.407 5.71 8.313 13.538 8.057 10.683 7.622 8.81 6.423 27.686-1.215 19.142-.937 16.8-2 16.8-1.09 0-6.02-5.115-10.844-11.255-5.827-7.417-7.16-6.182-1.892 1.75 1.76 2.65 3.2 5.123 3.2 5.495 0 .372.27.797.6.943.33.147 2.22 2.247 4.2 4.667s3.87 4.52 4.2 4.667c.33.146.6 4.03.6 8.632 0 9.2.54 10.84 6.42 19.52 4.957 7.31 7.107 23.52 3.586 27.04-1.303 1.3-16.887-17.86-18.76-23.06-.554-1.54-1.295-3.52-1.646-4.4-.685-1.72-3.61-11.81-4.756-16.4-1.878-7.53-3.45-17.01-5.44-32.79-.352-2.78-.593-3.23-1.073-2-1.92 4.93.13 27.63 3.84 42.38.67 2.64 1.38 5.88 1.58 7.2.21 1.32.68 3.12 1.07 4 .38.88 1.47 3.94 2.41 6.8.95 2.86 2.28 6.46 2.95 8 .68 1.54 1.77 4.06 2.42 5.6 2.66 6.24 6.28 13.38 8.39 16.54 1.23 1.84 2.24 3.57 2.24 3.84s1.51 2.73 3.35 5.45c15.3 22.69 36.99 43.57 58.24 56.06 10.5 6.17 28.32 14.9 30.43 14.9.45 0 1.45.33 2.21.73.76.4 4.09 1.52 7.39 2.48 3.3.95 6.9 2.03 8 2.38 2.04.65 9.88 2.3 19.2 4.03 15.1 2.81 46.77 1.79 65.6-2.11 66.14-13.71 120.12-64.62 137.71-129.9 3.59-13.33 4.48-19.26 5.19-34.57.58-12.38-.4-19.53-1.34-9.86-1.96 20.1-4.33 29.2-7.6 29.2-2.81 0-6.5 2.69-14.61 10.62-25.12 24.61-28.74 31.26-25.34 46.64.83 3.78-15.76 13.6-36.51 21.61-8.66 3.34-8.97 3.18-7.96-4.15.42-3.05 1.02-12.33 1.33-20.62.63-16.8.3-15.83 7.33-21.07 1.66-1.24 3.2-2.46 3.42-2.71.72-.83 7.88-5.56 8.4-5.56.28 0 4.09-1.79 8.45-3.99 20.43-10.27 36.97-22.61 47.17-35.22 1.96-2.42 3.77-4.58 4.02-4.8 1.09-.96 5.42-8.68 5.08-9.03-.21-.21-3.88 3.22-8.15 7.62-14.18 14.63-24.22 21.91-44.11 31.99-10.53 5.33-10.18 5.43-10.9-2.98-.74-8.59-4.48-11.07-10.8-7.17-2.34 1.45-22.02-7.78-28.27-13.24l-4.69-4.11-5.68.36c-3.13.2-8.93 1.29-12.89 2.43-3.96 1.14-8.25 2.08-9.54 2.09-2.2.02-4.81.7-10.45 2.7-11.04 3.91-22.34 30.81-18.71 44.52.57 2.15-33.97 1.1-50.88-1.54-7.57-1.19-14.85-2.35-19.2-3.07-3.61-.6-5.36-1.26-10.4-3.95-4.69-2.51-11.66-4.24-17.04-4.24-10.32 0-51.3-20.22-50.17-24.75.29-1.13.7-3.13.92-4.45.23-1.32.72-3.12 1.09-4 .38-.88.91-2.68 1.19-4 .27-1.32.85-3.84 1.29-5.6.44-1.76 1.01-4.71 1.27-6.56.43-3.01.83-3.53 3.97-5 8.18-3.84 10.47-1.73 21.71 19.96 4.88 9.42 9.57 17.36 10.65 18.03 2.71 1.67 3.95-3.96 2.29-10.34-1.77-6.77-4.25-14.52-4.88-15.25-.36-.42-.65-1.41-.65-2.21s-.33-2.08-.74-2.84c-1.72-3.25-4.23-10.69-3.77-11.15.28-.28 3.85.81 7.92 2.43 4.08 1.61 8.02 2.93 8.75 2.93.74 0 1.54.31 1.78.7.24.39 1.43.9 2.65 1.13 1.22.23 4.91 1.2 8.21 2.15 35.62 10.27 90.93 12.73 126.4 5.61 16.29-3.26 21.02-4.4 28.78-6.88 5.79-1.85 9.86 1.5 10.43 8.59.44 5.33 3.19 15.23 4.15 14.89.31-.11 5.81-4.7 12.22-10.2 12.15-10.43 13.21-11.87 13.22-18.09.02-9.3.87-12.06 4.31-13.96 1.81-1 5.28-3.14 7.7-4.75 2.42-1.61 4.83-3.18 5.36-3.49 2.05-1.2 13.51 19.44 15.39 27.71l1.25 5.52 2.1-1.65c3.08-2.43 4.7-8.29 4.7-17.05 0-12.44 2.47-21.45 5.87-21.45 4.28 0 13.32 14.05 13.35 20.71.01 2.68.23 3.36.79 2.49 2.47-3.82-.53-37.18-4.32-48-.69-1.98-1.26-4.39-1.27-5.35 0-.96-.37-1.98-.81-2.25-.44-.27-.8-1.14-.8-1.94s-.76-3.38-1.68-5.75c-.93-2.37-1.96-5.03-2.3-5.91-.79-2.06-5.52-12.31-6.64-14.4-.47-.88-1.81-3.4-2.98-5.6-13.38-25.14-39.87-52.78-64.41-67.2-7.95-4.68-8.87-5.18-13.6-7.49-7.3-3.56-13.26-6.17-16.8-7.36-1.76-.59-3.54-1.36-3.96-1.71-.42-.35-1.41-.64-2.21-.64s-2.08-.36-2.84-.79c-12.46-7.05-57.23-10.74-82.19-6.77m58.8 13.11c1.98.4 5.94 1.14 8.8 1.64 2.86.49 6.28 1.21 7.6 1.59 1.32.38 4.02 1.12 6 1.65 17.69 4.65 32.13 13.79 36.6 23.16l1.72 3.6.04-2.85c.03-1.83-.8-4.18-2.32-6.58-1.3-2.05-2.11-3.89-1.79-4.08 1.73-1.08 31.33 20.34 31.33 22.7 0 .3-.81.91-1.8 1.37-.99.45-2.83 1.31-4.08 1.91-2.25 1.07-4.78 5.41-5.55 9.53-3.52 18.79-3.68 19.1-9.24 18.94-9.03-.26-20.32 6.75-21.77 13.52-.46 2.17-1.14 5.33-1.51 7.03-.87 4.03-3.33 7.26-5.73 7.52-6.35.7-13.13 4.22-22.17 11.48-4.76 3.83-6.4 4.7-8.8 4.71-1.62 0-4.93.33-7.35.72-2.42.39-9.35.98-15.4 1.3-11.98.63-12.34.5-9.43-3.58 6.58-9.24 12.17-24.63 12.37-34.06l.15-7.2 2.76-.58c1.52-.32 6.18-1.15 10.36-1.84 12.42-2.07 20.95-4.19 24.19-6.01.76-.43 1.87-.78 2.46-.78 1.01 0 7.03-2.7 14.82-6.65 4.7-2.38 11.95-8.75 15.19-13.35 2.65-3.76 4.65-11.31 2.66-10.09-.5.32-.93 1.18-.94 1.93-.1 6.93-17.94 18.92-34.78 23.38-17.54 4.65-21 5.24-35.32 6.08l-8.12.47-7.28-6.43c-9.94-8.77-10.39-8.81-22.47-2.17-1.98 1.09-4.58 1.99-5.77 2-1.47.01-2.74.8-3.95 2.42-1.91 2.59-5.21 3.15-9.95 1.69-1.28-.39-4.48-1.15-7.12-1.67-2.64-.53-5.43-1.29-6.19-1.69-.76-.41-2.12-.73-3.01-.73-.89 0-2.25-.33-3.01-.74-.77-.41-3.55-1.55-6.19-2.54-27.71-10.38-35.15-26.22-18.2-38.72 4.36-3.21 16.09-9.21 18.01-9.21.71 0 1.49-.31 1.72-.69.24-.38 2.15-1.13 4.25-1.67s4.54-1.27 5.42-1.62c5.46-2.18 20.79-4.81 32.8-5.63 10.98-.75 45.16-.22 50 .78m-45.2 5.36c-21.17 2.35-28.86 17.14-12.96 24.92 3.38 1.65 4.4 1.93 12.57 3.49 8.34 1.58 25.89.11 31.39-2.63.76-.38 1.78-.69 2.25-.69 1.63 0 8.06-4.94 8.94-6.88 1.26-2.75.45-3.05-3.01-1.11-10.39 5.84-32.55 6.34-46.19 1.04-6.37-2.47-7.01-4.22-2.37-6.49 13.74-6.75 40.14-6.32 49.96.8 1.84 1.33 2.45.51 1.49-2.01-2.72-7.16-24.01-12.44-42.05-10.43m-82.7 17.81c-.27.77-.89 1.9-1.37 2.52-1.74 2.22-1.054 12.23 1.127 16.52 3.994 7.86 15.146 16.63 26.8 21.07 2.64 1 5.52 2.13 6.4 2.49 3.16 1.31 12.36 3.98 13.71 3.98.757 0 2.48.34 3.83.76s4.716 1.19 7.476 1.71c4.09.77 4.94 1.19 4.6 2.28-.24.73 1.73 5.67 4.35 10.99 6.93 13.99 11.2 29.06 9.18 32.34-.82 1.33-11.3.65-26.76-1.76-7.12-1.11-7.35-1.31-5.98-5.16 3.13-8.79.57-19.46-4.7-19.55-1.37-.02-9.95 4.37-10.89 5.58-.88 1.13-10.3 7.14-13.7 8.74l-3.63 1.7-3.64-1.56c-4.84-2.07-5.08-2.71-2.23-5.95 2.13-2.42 14.72-11.34 19.87-14.07 2.83-1.5.93-2.98-4.45-3.47-18.41-1.7-34.11-16.51-40.25-37.98-2.05-7.19-2.22-6.65 3.42-11.1C101 53.39 106.2 50.27 105.1 53.37m14.688 98.68c3.887 1.37 7.46 2.81 7.948 3.2 2.49 2.03 10.3 1.77 12.91-.43 2.787-2.34 1.93-2.36 16.61.36 2.2.41 6.34.94 9.2 1.19 17.98 1.56 17.14 1.02 13.595 8.68-4.78 10.34 3.77 9.412 14.55-1.57l4.85-4.94 12.91-.58c7.1-.32 14.7-.86 16.9-1.217 5.52-.877 5.67-.31 1.52 5.63-6.23 8.93-6.95 11.863-6.99 28.39-.02 10.845.57 13.66 3.58 17.03l2.11 2.36-5.31.5c-8.24.78-41.91.6-51.71-.275-21.01-1.88-39.47-5.337-55.6-10.41-2.42-.76-6.02-1.86-8-2.43-1.98-.58-3.94-1.35-4.36-1.71-.41-.36-1.24-.66-1.84-.66-.59 0-2.56-.72-4.39-1.6-1.82-.88-3.77-1.6-4.35-1.6-3.52 0-5.06-21.1-1.93-26.665l2.6-4.625c5.65-10.025 13.55-12.73 25.21-8.63M328 170.51c5.914 3.603 7.384 6.45 4.2 8.13-1.21.64-4.31 2.334-6.886 3.767l-4.687 2.6.287-6.79c.397-9.42 1.798-10.94 7.086-7.72m-63.284 9.33c1.932 3.61 1.277 24.37-.793 25.16-2.807 1.06-9.94 2.33-24.123 4.28-6.526.9-3.74-2.94 3-4.14 6.985-1.24 9.578-3.79 12.794-12.59 1.158-3.17 2.443-6.39 2.856-7.15.412-.77.75-1.77.75-2.23 0-3.38 4.15-5.89 5.516-3.34m-197.98 67.75c2.94 1.97 8.748 5.27 12.905 7.34 9.03 4.47 9.65 5.87 2.63 5.87-15.15 0-22.23-4.778-22.26-15 0-2.48.62-2.32 6.73 1.78M160 279.2c12.752 1.875 61.072 3.54 64.723 2.23 11.053-3.96 20.858 2.89 20.873 14.59.003 3.135 1.925 18.214 3.627 28.462l.545 3.287-3.884.57c-10.84 1.6-15.532 2.05-29.884 2.84-15.573.85-41.03.09-52.4-1.57l-10.4-1.51c-3.08-.45-8.12-1.38-11.2-2.06-3.08-.69-5.96-1.25-6.4-1.25-.44 0 .117-.81 1.238-1.8 7.604-6.72 9.623-27.55 4.315-44.52-.697-2.23-1.394-2.25 18.847.72m-113 5.25c3.103 3.88 4.228 7.25 2.872 8.61-.52.52-4.404-5.45-7.528-11.58-2.19-4.3-.062-2.94 4.656 2.96m288.122 20.47c2.47 7.09 1.744 8.69-8.566 18.91-8.94 8.86-11.58 11.19-19.577 17.25-7.13 5.39-28.1 18.11-29.88 18.11-.15 0-2.52 1.03-5.28 2.28-2.76 1.26-6.46 2.78-8.22 3.37-1.76.59-3.56 1.3-4 1.57-.44.27-2.42.95-4.4 1.52-1.98.57-4.32 1.33-5.2 1.69-.88.36-2.68.83-4 1.04-1.32.21-4.92.96-8 1.67-25.09 5.75-53.14 5.64-77.6-.3-1.76-.43-4.28-1-5.6-1.27-1.32-.27-3.12-.78-4-1.13-.88-.35-4.12-1.42-7.2-2.38-15.27-4.76-20.08-8.28-25.21-18.43-5.13-10.17.6-20.37 10-17.8 11.29 3.09 22.65 5.5 31.2 6.61 30.26 3.93 62.5 3.46 89.24-1.28l2.84-.51 2.9 5.87c5.37 10.86 13.14 11.56 22.33 2.01 1.45-1.51 4.94-8.3 7.67-14.94.63-1.54 2.47-2.64 7.91-4.74 12.64-4.89 26.56-12.1 37.09-19.22 4.44-3.01 4.44-3.01 5.52.08"/>
    <path fill="#583f67" d="M184 29.58c-9.133.585-17.09 1.672-24 3.28-1.98.46-4.68 1.02-6 1.244-1.32.223-3.12.69-4 1.04-.88.35-3.04 1.068-4.8 1.598-1.76.53-4.01 1.3-5 1.71-.99.412-2.61 1.064-3.6 1.45-14.04 5.476-27.158 16.96-25.104 21.976.252.616.4.575.44-.125.32-5.278 18.655-17.134 32.464-20.99 1.32-.37 5.1-1.44 8.4-2.38 12.32-3.51 28.388-5.186 49.6-5.17 22.084.017 28.62.62 43.6 4.03 3.08.7 6.5 1.455 7.6 1.676 1.1.22 2.72.68 3.6 1.03.88.34 3.04 1.08 4.8 1.63 11.996 3.75 23.57 11.18 28.14 18.07 3.256 4.9 3.835 5.17 2.424 1.11C288.38 48.74 276.18 41.1 249.2 33.61c-1.32-.367-4.92-1.08-8-1.587-3.08-.507-7.22-1.25-9.2-1.65-4.9-.997-36.67-1.526-48-.8m8.8 13.773c-9.363 1.315-17.6 4.495-17.6 6.79 0 1.37 1.21 1.315 5.6-.263 12.275-4.413 33.202-4.418 43.498-.01 5.632 2.41 7.522.766 2.697-2.35-6.563-4.235-21.113-6.01-34.195-4.17m96.532 5.233c-.744 1.2 3.865 5.63 10.268 9.86 3.52 2.323 8.982 6.324 12.137 8.89 3.156 2.57 6.283 4.67 6.953 4.67 2.638 0 1.842-1.52-2.766-5.277-2.648-2.16-5.785-4.76-6.97-5.79-5.378-4.64-19.064-13.26-19.622-12.35M98.8 55.67c-5.927 3.966-12.95 9.52-14.575 11.527-2.454 3.03.125 3.29 3.45.347 1.28-1.13 4.485-3.536 7.125-5.345 2.64-1.81 4.92-3.59 5.067-3.95.146-.36.72-.66 1.276-.66 1.506 0 3.836-2.9 3.527-4.38-.215-1.04-1.4-.55-5.87 2.45m68.083.9c3.72 15.72 58.32 16.01 63.108.33.65-2.11.66-2.12-4.79 1.49-14.47 9.58-45.59 8.61-56.45-1.76l-2.39-2.29.53 2.23M103.2 72.4c0 .66.36 1.2.8 1.2.44 0 .8.9.8 2s.282 2 .628 2c.345 0 1.213.99 1.93 2.2 3.887 6.57 14.916 14.048 27.442 18.608 2.64.962 5.52 2.033 6.4 2.382 9.472 3.75 24.83 6.197 25.935 4.13.718-1.34.254-1.57-4.972-2.47-3.17-.547-6.59-1.322-7.6-1.722-1.01-.4-2.726-.728-3.81-.728-1.087 0-2.6-.31-3.364-.692-.77-.38-4.09-1.532-7.39-2.56-3.3-1.027-6.54-2.136-7.2-2.464-.66-.33-3.95-1.91-7.31-3.514-9.43-4.504-20.7-14.698-20.7-18.714 0-.47-.36-.856-.8-.856-.44 0-.8.54-.8 1.2m187 3.057c-3.16 4.76-9.41 10.154-15.17 13.1-8.02 4.1-13.81 6.643-15.13 6.643-.78 0-1.61.317-1.85.704-.24.388-1.25.903-2.25 1.145-1 .24-3.26.85-5.02 1.35-4.68 1.34-8.68 2.18-17.2 3.62-12.85 2.17-13.16 2.26-13.47 3.89-.48 2.49 10.53 1.34 27.47-2.86 3.52-.88 7.02-1.92 7.79-2.33.76-.41 1.94-.74 2.61-.74.67 0 1.84-.33 2.61-.74.76-.4 2.74-1.3 4.39-2 14.27-6.03 21.69-11.63 26.67-20.12 3.28-5.6 2.05-7.01-1.47-1.7M168.8 111.83c0 .345 1.98 4.575 4.398 9.4 2.42 4.823 4.4 8.313 4.4 7.755.002-1.15-7.894-17.785-8.442-17.785-.196 0-.356.283-.356.63M120 122.215c-8.533 5.69-12 8.808-12 10.795 0 1.37.358 1.257 3-.955 1.65-1.38 3.37-2.768 3.82-3.083l4.53-3.172c2.04-1.43 4.103-2.6 4.58-2.6.48 0 .87-.36.87-.8 0-.44.45-.802 1-.804.55-.002 2.08-.89 3.4-1.97l2.4-1.968-2.4.012c-1.57.008-4.75 1.58-9.2 4.546m93.65 14.052c-.63 1.613-1.44 2.932-1.8 2.932-.357 0-.65.344-.65.765 0 .42-1.096 2.624-2.436 4.897-2.494 4.23-2.783 5.852-.596 3.343 1.78-2.043 5.432-8.877 5.432-10.167 0-.607.4-1.238.89-1.402.492-.163.762-.973.6-1.8-.214-1.11-.59-.737-1.44 1.432m-110.136 15.76c-5.084 2.516-12.465 12.39-12.205 16.325.09 1.5.14 1.485.45-.153.19-.99.68-1.8 1.09-1.8.41 0 .74-.4.74-.89 0-7.3 17.1-14.27 25.39-10.342 1.21.575 2.92 1.32 3.8 1.653.88.34 3.53 1.37 5.9 2.3 6.08 2.38 8.68 2.2 11.81-.83 2.31-2.24 2.84-2.42 4.84-1.66 1.23.47 4.22 1.1 6.64 1.4 2.42.31 6.38.9 8.8 1.32 9.66 1.69 20.97 1.77 20.66.15-.25-1.26-1.89-1.65-11.88-2.81-13.38-1.55-22.97-2.9-24.8-3.48-.71-.22-2.06.32-3.02 1.21-4.27 3.98-6.35 3.88-18.99-.88-9.57-3.6-14.28-3.97-19.28-1.49m116.88 5.62c-3.96.33-10.22.63-13.9.68l-6.71.09-4.1 4.32c-5.02 5.29-10.02 8.6-13.94 9.23-2.25.37-2.96.86-2.96 2.06 0 4.12 7.66.86 14.92-6.34l5.08-5.04 8-.5c27.12-1.7 25.22-1.43 26.61-3.68 1.15-1.87.6-1.9-13.01-.79M25.6 164.21c.01 1.458.16 1.57.787.6 1.004-1.55 1.004-2.4 0-2.4-.44 0-.792.81-.786 1.8m2.39 2.044c0 1.183 6.44 10.705 11.47 16.957.53.66 1.59 2.09 2.35 3.18 1.32 1.88 1.39 1.9 1.39.29 0-.92-2.92-5.59-6.49-10.37-3.57-4.78-6.67-9.14-6.88-9.69-.43-1.1-1.82-1.37-1.82-.35m294.93 3.77c-1.77 1.3-1.72 3.74.08 3.55 3.19-.32 4.73.15 6.83 2.1 3.79 3.51 5.46 2.14 2.03-1.66-3.48-3.85-6.98-5.41-8.93-3.99m40.68 8.12c-1.48 3.55-.98 4.38 1.1 1.81 2.56-3.15 7.59 1.22 12.45 10.83 1.08 2.13 2.14 3.37 2.44 2.88.67-1.09-4.38-10.45-8.11-15.03-3.62-4.44-6.14-4.6-7.86-.47m-102.2 1.68c-1.87 2.1-3.83 7.29-2.96 7.83.42.25.75-.09.75-.78 0-1.94 2.58-4.46 4.56-4.46 1.64 0 1.72-.18.9-2-1.08-2.37-1.59-2.46-3.25-.6m68.29 7.4c-4.13 2.61-7.86 4.86-8.28 5-.42.14-.64 1.05-.48 2.01.28 1.72.39 1.69 5.08-1.05 6.61-3.86 7.94-4.68 8.4-5.24 2.2-2.63 6.4-1.62 6.4 1.54 0 .52.32.94.71.94.39 0 .91.63 1.15 1.4.44 1.39 2.97 5.84 3.76 6.6.23.22 1.31 2.18 2.4 4.34 1.1 2.17 2.1 3.41 2.22 2.76.43-2.23-11.36-23.1-13.03-23.06-.44.01-4.18 2.16-8.31 4.77M253.66 198c-.24 2.995-4.905 6.085-11.472 7.598-8.616 1.985-8.368 4.82.278 3.19 7.456-1.408 13.244-6.643 11.672-10.558-.228-.566-.443-.67-.478-.23m-157.956 3.36c-.642.643.985 3.44 2 3.44.47 0 1.987.496 3.373 1.1 6.043 2.642 11.24 4.5 12.58 4.5.793 0 1.64.318 1.88.708.24.39 1.433.9 2.648 1.133 1.215.24 4.91 1.22 8.21 2.18 3.3.97 7.53 2.08 9.4 2.47 1.87.39 5.11 1.08 7.2 1.52 39.22 8.34 92.533 6.85 131-3.66 10.134-2.77 9.652-2.76 13.166-.18 2.99 2.2 3.24 2.26 3.24.78 0-1.54-6.11-7.57-7.11-7.02-1.17.64-12.53 3.7-20.88 5.63-30.87 7.11-78.78 8.15-111.6 2.41-18.88-3.3-35.78-7.98-50.4-13.94-2.95-1.2-4.24-1.49-4.69-1.03m-24.7 3.6c-2.6 1.12-3.8 2.11-3.8 3.14 0 1.81-.1 1.8 3.48.3 5.94-2.48 14.1.88 14.12 5.8 0 .55.32 1 .71 1 .39 0 .91.63 1.16 1.4.24.77 1.76 3.74 3.37 6.6 1.61 2.86 4.72 8.68 6.91 12.93 4.11 7.99 6.34 10.81 7.81 9.9 1.38-.86 1-3.47-.5-3.34-1.49.12-4.4-3.82-8.52-11.57-3.01-5.66-7.33-13.69-10.17-18.92-4.95-9.08-7.42-10.31-14.56-7.24m153.8 1.89c0 1.31 1.81 3.55 2.87 3.55 1.02 0 .99-.31-.22-1.97-1.34-1.84-2.63-2.61-2.63-1.57m-199.2 1.79c0 3.16 12.54 20.96 14.77 20.96 1.42 0-.14-2.84-4.23-7.71-2.57-3.06-5.99-7.52-7.6-9.92-1.61-2.39-2.93-3.89-2.93-3.33m330.6 5c-2.71 2.44-3.42 4.76-1.45 4.76 1.45 0 4.66-4.43 4.31-5.95-.19-.83-.96-.51-2.86 1.19m9.56 6.16c-3.52 4.35-8.68 9.86-11.48 12.25-2.79 2.39-5.26 4.53-5.48 4.75-5.12 5.19-24.48 16.96-36.8 22.38-7.03 3.09-21.6 14.23-21.6 16.51 0 2.01 1.61 1.2 8.26-4.15 3.6-2.9 8.17-5.99 10.15-6.88 5.12-2.29 13.45-6.48 17.2-8.65 1.76-1.02 3.92-2.26 4.8-2.75 11.27-6.3 31.84-24.02 35.93-30.96.73-1.23 1.76-2.71 2.3-3.28 1.53-1.64 3.97-6.28 3.53-6.72-.22-.22-3.28 3.16-6.8 7.51m-54.56-.97c-3.74 3.26-9.21 7.82-12.15 10.15-4.83 3.81-6.91 7.03-4.56 7.03 2.05 0 23.37-18.88 24.04-21.3.77-2.75.2-2.43-7.33 4.13M60.01 245c.02 1.558.91 2.516 4.792 5.156 8.627 5.867 16.613 9.837 19.796 9.84 3.8.006 3.21-.897-2.34-3.596-2.71-1.32-8.72-4.65-13.35-7.4-9.4-5.585-8.91-5.364-8.89-4m-19.213.833c0 .324.32 1.214.708 1.978.39.77 1.19 2.47 1.78 3.79.59 1.32 2.376 4.38 3.97 6.8 1.596 2.42 3.107 4.94 3.36 5.6.282.74.482.42.52-.83.036-1.14-1.61-4.66-3.736-8.01-4.72-7.42-6.6-10.08-6.6-9.32m336 4.12c0 2.45.454 2.65 1.03.45.23-.88.09-1.8-.307-2.04-.4-.24-.726.48-.726 1.6m-353.6 2.8c0 .86.36 1.78.8 2.05.454.28.8-.39.8-1.55 0-1.12-.36-2.04-.8-2.04-.44 0-.8.7-.8 1.55m352 2.1c0 1.16.346 1.83.8 1.55.44-.27.8-1.19.8-2.04s-.36-1.55-.8-1.55c-.44 0-.8.92-.8 2.05m-350.4 3.9c0 1.07.36 2.18.8 2.45.44.28.8 1.22.8 2.1 0 1.81 2.126 9.17 3.26 11.29 2.212 4.14 1.296 4.74-6.86 4.47-6.806-.23-7.6-.11-7.6 1.15 0 .77.36 1.4.8 1.4.44 0 .8.7.8 1.56s.36 1.77.8 2.04c.44.27.8 1.33.8 2.35s.54 2.3 1.2 2.85c.66.55 1.2 1.64 1.2 2.43 0 .79.27 1.56.6 1.71.33.15 1.86 2.72 3.4 5.72 1.54 3 3.43 6.13 4.2 6.96s1.4 1.89 1.4 2.35c0 .46.36.84.8.84.44 0 .8.54.8 1.2 0 .66.36 1.2.8 1.2.44 0 .8.54.8 1.2 0 .66.36 1.2.8 1.2.44 0 .8.46.8 1.02s.72 1.54 1.6 2.18c.88.63 1.6 1.57 1.6 2.08s1.44 2.41 3.2 4.22c1.76 1.82 3.2 3.67 3.2 4.12 0 .45 1.53 2.39 3.4 4.3 1.87 1.91 5.253 5.41 7.517 7.78 6.28 6.56 14.69 14.3 15.53 14.3.42 0 2.59 1.8 4.84 4s4.59 4 5.21 4c.62 0 1.12.36 1.12.8 0 .44.38.8.85.8.69 0 6.34 3.98 7.95 5.6.22.23 1.39.92 2.6 1.54 1.21.63 2.2 1.44 2.2 1.8 0 .37.72.67 1.6.67.88 0 1.6.3 1.6.66 0 .72 7.15 4.14 8.66 4.14.52 0 .95.29.95.64 0 .69 5.56 3.36 6.98 3.36 1.46 0 5.03 2.14 4.48 2.68-.28.29.42.52 1.57.52s2.31.36 2.58.8c.27.44 1.37.8 2.45.8s1.96.36 1.96.8c0 .44.72.8 1.6.8.88 0 1.6.36 1.6.8 0 .44 1.44.8 3.2.8 1.76 0 3.2.36 3.2.8 0 .44 1.06.8 2.36.8s2.58.36 2.85.8c.27.44 1.37.8 2.45.8s1.95.36 1.95.8c0 .44 1.62.8 3.6.8s3.6.36 3.6.8c0 .44 1.73.8 3.84.8s4.29.45 4.84 1c.77.77 9.09 1 36.12 1 27.03 0 35.35-.23 36.12-1 .55-.55 2.91-1 5.24-1 2.34 0 4.24-.36 4.24-.8 0-.44 1.42-.8 3.16-.8s3.38-.36 3.65-.8c.27-.44 1.37-.8 2.45-.8s1.95-.36 1.95-.8c0-.44 1.44-.8 3.2-.8 1.76 0 3.2-.36 3.2-.8 0-.44 1.08-.8 2.4-.8 1.32 0 2.4-.36 2.4-.8 0-.44.72-.8 1.6-.8.88 0 1.6-.36 1.6-.8 0-.44 1.08-.8 2.4-.8 1.32 0 2.4-.36 2.4-.8 0-.44.9-.8 2-.8s2-.27 2-.6c0-.33 1.17-1.09 2.6-1.68 10.15-4.19 18.2-8.18 18.2-9 0-.39.72-.71 1.6-.71.88 0 1.6-.36 1.6-.8 0-.44.47-.8 1.05-.8.58 0 1.75-.63 2.6-1.4.85-.77 2.63-1.94 3.95-2.6 1.32-.66 3.36-2.19 4.52-3.4 1.17-1.21 2.56-2.2 3.08-2.2.53 0 1.97-1.08 3.2-2.4 1.24-1.32 2.62-2.4 3.09-2.4.46 0 2.57-1.71 4.68-3.8s5.1-4.74 6.64-5.89c3.58-2.68 9.23-8.32 11.91-11.91 1.15-1.54 3.8-4.53 5.89-6.64 2.09-2.11 3.8-4.22 3.8-4.68 0-.46 1.08-1.85 2.4-3.08 1.32-1.23 2.4-2.67 2.4-3.2 0-.53.99-1.91 2.2-3.08 1.21-1.17 2.74-3.2 3.4-4.52.66-1.32 1.83-3.1 2.6-3.95.77-.86 1.4-2.03 1.4-2.6s.36-1.05.8-1.05c.44 0 .8-.72.8-1.6 0-.88.29-1.6.65-1.6.52 0 3.2-4.55 3.77-6.4.07-.22 1.08-2.48 2.25-5.02 1.17-2.54 2.13-4.95 2.13-5.35 0-.4.8-2.1 1.77-3.77 1.05-1.79 1.29-2.67.6-2.14-1.92 1.48-15.97 1.47-15.97-.01 0-.66.34-1.41.75-1.66.42-.26 1-2.08 1.29-4.06.3-1.97.86-3.79 1.25-4.03.39-.24.71-1.47.71-2.74s.36-2.53.8-2.8c1.05-.64 1.05-4.4 0-4.4-.44 0-.8 1.08-.8 2.4 0 1.32-.36 2.4-.8 2.4-.44 0-.8.7-.8 1.55 0 .86-.36 1.78-.8 2.05-.44.27-.8 1.2-.8 2.06 0 .86-.34 2.19-.76 2.96-.41.76-2.55 5.17-4.74 9.79-18.76 39.52-55.13 74.08-94.49 89.81l-4 1.6c-38.23 15.3-85.65 16.05-126.8 2.01-2.64-.9-6.42-2.35-8.4-3.22-1.98-.87-4.86-2.13-6.4-2.79-5.22-2.25-13.9-6.71-16.08-8.26-1.19-.85-2.42-1.54-2.73-1.54-.31 0-4.04-2.4-8.28-5.33-26.77-18.5-48.73-43.84-61.6-71.07-1.87-3.96-3.74-7.83-4.16-8.59-.42-.76-.76-1.93-.76-2.6 0-.67-.36-1.21-.8-1.21-.44 0-.8-.73-.8-1.61 0-.89-.36-2.33-.8-3.2l-1.6-3.18c-.44-.87-.8-2.49-.8-3.6 0-1.11-.36-2.01-.8-2.01-.44 0-.8.88-.8 1.95m116 19.01c0 1.85 1.77 3.04 4.51 3.04 1.42 0 3.47.34 4.56.75 8.43 3.21 67.17 5.62 78.53 3.23 5.48-1.16 8.75-.01 13.8 4.82l2.6 2.48v-1.95c0-4.55-9.7-10.54-14.93-9.22-6.8 1.72-51.94.76-67.72-1.44-21.73-3.03-21.35-3-21.35-1.71m-98.39 2.75c-.02 2.31 6.12 10.95 7.28 10.24.39-.24.7-.87.68-1.39-.05-1.25-7.95-10.03-7.96-8.84m284.31 26.21c-8.87 5.94-18.81 11.08-31.07 16.09-7.41 3.02-10.53 4.69-10.96 5.88-.9 2.43.41 2.74 4.28 1.01 1.9-.84 4.88-2.08 6.64-2.74 9.57-3.62 25.44-12.01 34.55-18.27 1.84-1.27 3.77-2.3 4.29-2.3.53 0 .73-.56.46-1.27-.26-.69-.48-1.59-.48-2 0-1.32-1.12-.79-7.67 3.59m-185.96 11.8c0 .5-1.08 1.95-2.4 3.21-2.82 2.69-2.93 3.08-.86 3.08.85 0 2.29-1.04 3.2-2.32 1.76-2.47 2.18-4.88.86-4.88-.44 0-.8.41-.8.92m-20.3 14.3c-1.51 1.33-3.13 3.5-3.59 4.83-.96 2.74-.68 2.66 4.05-1.1 3.09-2.46 2.93-2.45 10.24-.55 33.35 8.67 62.66 10.5 105.2 6.59 3.52-.33 6.8-.85 7.29-1.17.49-.32 2.76-.65 5.04-.73 3.96-.14 4.13-.24 3.9-2.22-.28-2.35-.65-2.38-11.04-.96-16.86 2.31-25.17 2.88-42 2.84-10.12-.02-22.18-.49-26.8-1.05-17.83-2.15-24.89-3.26-31.2-4.89-1.98-.51-5.04-1.24-6.8-1.61-1.76-.37-4.64-1.06-6.4-1.52-4.56-1.2-4.85-1.14-7.9 1.54m162.81.16c-.31 3.88-6.98 12.71-11.59 15.34-7.08 4.03-11.79 3.11-15.53-3.05-3.33-5.48-4.77-4.69-1.85 1.02 4.2 8.24 10.09 10.36 17.19 6.2 5.78-3.39 13.07-14.75 12.23-19.08-.22-1.14-.39-1.3-.46-.43"/>
    <path fill="#885fa0" d="M185.572 33.09c-.236.24-4.196.807-8.8 1.264-11.746 1.166-17.065 2.06-23.972 4.028-3.3.94-7.08 2.01-8.4 2.38-11.354 3.17-22.696 9.55-29.013 16.316-3.33 3.568-5.358 8.522-3.487 8.522.495 0 .9.566.9 1.257 0 2.756 2.242 3.796 6.65 3.084 9.78-1.57 33.414-.39 35.596 1.79.586.59 2.03 1.27 3.21 1.51 4.703.97 8.612 2.31 9.894 3.39.742.63 1.772.88 2.29.56.516-.32 1.182-.18 1.48.3.298.48 2.327 1.34 4.51 1.91 3.595.94 8.37 4.45 8.37 6.15 0 .36.9.48 2 .27 1.1-.21 2-.7 2-1.09 0-.39.7-.7 1.553-.7.854 0 1.775-.36 2.047-.8 1.613-2.61 7.92.77 16.4 8.78l5.2 4.91 8-.42c13.984-.75 17.59-1.36 35.2-6.03 16.84-4.46 34.68-16.45 34.78-23.38.01-.74.37-1.57.795-1.83.47-.29.745 1.35.7 4.16-.127 7.58-4.464 13.91-13.792 20.14-5.384 3.59-7.66 4.79-14.683 7.76-1.65.7-3.625 1.6-4.39 2-.763.4-1.938.73-2.61.73-.672 0-1.847.33-2.61.74-1.365.72-10.296 3.07-18.19 4.79-2.2.48-6.88 1.09-10.4 1.37l-6.4.51-.06 4.1c-.105 6.93-.652 11.61-1.31 11.2-.647-.4-.935 1.36-.657 3.99.094.89-.19 1.27-.708.96-.562-.34-.87.54-.877 2.52-.01 2.26-.212 2.74-.788 1.85-.877-1.35-1.115-.49-.83 3 .08.99-.23 1.8-.688 1.8-.457 0-.63-.63-.38-1.4.343-1.07.265-1.14-.328-.31-.428.6-.616 1.71-.417 2.47.358 1.37-2.858 7.97-5.185 10.64-1.087 1.25-1.088 1.4-.007 1.4.667 0 2.072-1.62 3.122-3.6 1.05-1.98 2.18-3.6 2.512-3.6.33 0 .6-.7.6-1.55s.36-1.77.8-2.04c.44-.27.8-1.19.8-2.05 0-.85.36-1.55.8-1.55.44 0 .8-.72.8-1.6 0-.88.36-1.6.8-1.6.44 0 .8-1.11.8-2.46 0-5.24 2-1.8 2.63 4.53.35 3.48.98 6.68 1.4 7.1.42.42.76 2.18.76 3.91v3.15l5.4-.5c15.19-1.42 14.61-1.26 19.55-5.38 7.69-6.41 15.98-10.64 22.16-11.32 2.4-.27 4.85-3.5 5.73-7.53.37-1.7 1.05-4.86 1.51-7.03 1.44-6.77 12.73-13.79 21.77-13.52 5.56.16 5.72-.16 9.24-18.94 1.11-5.95 3.57-9.04 8.63-10.82 1.26-.45 1.34-.66.4-1-.66-.24-3.72-2.47-6.8-4.97-3.08-2.49-8.3-6.34-11.6-8.53-8.51-5.67-8.32-5.58-7.27-3.62.7 1.32 1.09 8.94.45 8.94-.09 0-1.46-1.96-3.06-4.36-4.56-6.87-16.15-14.31-28.13-18.06-1.76-.55-3.92-1.28-4.8-1.63-.88-.35-2.5-.81-3.6-1.03-1.1-.22-3.62-.82-5.6-1.32-5.73-1.46-11.1-2.41-18.4-3.25-7.74-.89-43.38-1.9-44.03-1.24m31.55 4.92c11.5 4.17 15.85 10.07 12.31 16.69-.6 1.11-.56 1.34.17.9 1.34-.83.21 2.74-1.48 4.66-10.93 12.43-64.07 9.43-60.7-3.43.27-1.05.11-1.44-.44-1.1-.55.34-.68.04-.34-.83.29-.75.11-2.01-.38-2.81-3.66-5.85 8.14-14.91 21.33-16.37 8.35-.93 24 .29 29.52 2.29M190 47.6c-6.845 1.22-14.285 3.664-13.43 4.41 7.395 6.45 36.118 7.29 48.977 1.432l3.613-1.646-3.98-1.61c-8.88-3.592-23.507-4.668-35.18-2.586m-88.4 9.83c-.66.225-1.38.653-1.6.95-.22.297-2.56 2.018-5.2 3.824s-5.846 4.21-7.124 5.34c-1.28 1.13-2.766 2.056-3.306 2.056-.995 0 .17 4.805 1.482 6.118.3.302.548 1.17.548 1.93 0 2.8 7.096 1.764 9.39-1.372.555-.76 1.01-.953 1.01-.43 0 1.714 2.23 1.002 3.908-1.246l1.64-2.2.027 2.2c.014 1.21.385 2.2.825 2.2.44 0 .8.54.8 1.2 0 .66.36 1.2.8 1.2.44 0 .8.37.8.82 0 1.346 6.532 7.467 11.748 11.01 7.288 4.948 24.393 12.17 28.826 12.17.828 0 1.848.317 2.266.704.418.387 4 1.328 7.96 2.092 8.43 1.626 9.7 2.186 10.448 4.603.306.99 2.85 6.46 5.654 12.15s5.11 10.73 5.123 11.2c.082 2.72 2.375 3.88 2.363 1.2-.01-2.14-.198-2.49-.836-1.56-.685.99-.802.93-.696-.4.26-3.25-.054-4.5-.982-3.93-.632.39-.785.03-.482-1.13.272-1.04.09-1.63-.474-1.53-.505.09-.892-.62-.86-1.58.033-.97-.306-1.69-.752-1.6-.446.08-.957-.52-1.135-1.34-.23-1.08-.02-1.32.76-.87.64.36.8.32.41-.11-.36-.4-1.08-.74-1.6-.75-.51-.01-.9-.8-.87-1.75.04-.96-.32-1.67-.8-1.59-.47.08-.83-.64-.8-1.6.04-.97-.3-1.69-.75-1.6-.44.08-.95-.52-1.13-1.34-.22-1.05 0-1.33.76-.94.59.3.46.04-.31-.59-.76-.63-1.19-1.34-.94-1.58.8-.8-1.52-3.65-2.62-3.23-1.42.54-19.83-3.48-24.64-5.38-.88-.35-3.76-1.42-6.4-2.38-12.52-4.56-23.55-12.04-27.44-18.61-.72-1.21-1.58-2.2-1.93-2.2-.34 0-.63-.9-.63-2s-.31-2-.7-2c-.38 0-.74-1.35-.78-3-.04-1.65-.38-4.08-.76-5.4-.39-1.38-.37-3.55.04-5.08.82-3 .72-3.28-.99-2.7m27.6 60.07l2.4.51-2.52 1.79c-1.38.98-2.91 1.79-3.39 1.79s-.88.36-.88.8c0 .44-.39.8-.87.8-.72 0-3.59 1.82-9.11 5.78-3.3 2.37-6.02 4.89-6.02 5.57 0 .44 1.34-.37 2.98-1.8 1.64-1.44 6.23-4.75 10.2-7.35 10.61-6.96 12.07-8.73 6.98-8.51-2.14.09-2.14.09.24.6m19.28 23.61c-.67 3.52-.18 4.53 1.06 2.21.52-.98.59-2.33.18-3.44-.61-1.66-.73-1.55-1.25 1.22m30.79-.92c.12 3.79 1.43 5.19 1.49 1.6.03-1.87-.3-3.4-.74-3.4s-.78.81-.74 1.8m-69.85 9.96c1 .19 2.44.18 3.2-.02.77-.2-.05-.36-1.81-.35-1.76.01-2.38.17-1.39.36m-3.03 3.94c-4.54 1.72-6.65 3.19-9.53 6.63-1.8 2.15-3.27 4.3-3.27 4.79 0 .49-.36.89-.8.89-.44 0-.82.81-.85 1.8-.05 1.72-.08 1.72-.74.2-.61-1.42-.69-1.35-.74.6-.08 3.25 1.19 2.68 3.26-1.45 5.17-10.35 16.64-15.79 24.5-11.61 10.09 5.36 18.78 6.74 22.53 3.59l2.46-2.07 12.61 2.01c19.37 3.08 25.55 3.38 26.23 1.26.3-.94.17-2.07-.29-2.53-.58-.58-.69-.29-.36.95.52 1.96-9.81 2.05-20.56.17-2.42-.43-6.38-1.02-8.8-1.32-2.42-.3-5.41-.93-6.64-1.4-2-.75-2.52-.57-4.83 1.67-3.75 3.63-5.37 3.49-18.12-1.66-1.1-.44-2.61-1.11-3.34-1.48-1.72-.87-11.08-1.64-12.65-1.05m118 6.75c-3.96.32-11.34.85-16.4 1.18l-9.2.61-5.08 5.04c-7.43 7.37-15.01 10.49-14.85 6.11.03-.98-.26-1.78-.66-1.78s-.6.99-.46 2.2c.63 5.46 11.72 1.06 18.86-7.49l2.94-3.51H213c9.785 0 13.45.26 13.69.98.2.61 1.356.01 3.066-1.59 1.51-1.42 2.56-2.52 2.34-2.45-.22.07-3.64.38-7.6.7m-197.705 1.4c.24.77.09 1.94-.33 2.6-.68 1.07-.78 1.07-.88 0-.21-2.22-3.47 16.27-5.19 29.46-.98 7.52-1.9 2.74-1.91-10l-.01-12.15-7.6-.26c-4.18-.14-7.6.01-7.6.34s-.5.6-1.11.6c-.61 0-1.33.57-1.6 1.28-1.01 2.62-.14 58.58.92 59.64.55.55 1 2.91 1 5.24s.36 4.24.8 4.24c.44 0 .8 1.62.8 3.6s.36 3.6.8 3.6c.44 0 .8 1.08.8 2.4 0 1.32.36 2.4.8 2.4.44 0 .8 1.24.8 2.75s.36 2.97.8 3.24c.44.27.8 1.2.8 2.06 0 .86.36 2.28.8 3.15l1.6 3.18c.44.88.8 2.32.8 3.2 0 .89.34 1.61.75 1.61s.86.99 1 2.2l.26 2.2 8.2.26c8.81.28 9.71-.26 7.46-4.47-2.28-4.26-4.11-13.61-2.46-12.59.47.29.59-.05.29-.82-.39-1.02-.64-1.08-1.15-.26-.87 1.41-1.87-1.12-1.3-3.29.23-.85-.09-1.97-.71-2.48-1.27-1.05-1.52-3.93-.34-3.93.43 0 .57-.54.32-1.19-.25-.66-.83-.96-1.29-.68-.53.34-.67-.3-.39-1.8.25-1.27-.05-3.51-.67-4.98-.61-1.46-1.1-3.44-1.09-4.4.01-.95-.35-4.79-.81-8.53-1.39-11.43-1.89-22.01-1.22-25.29l.64-3.11.67 4c.37 2.2 1.22 7.96 1.89 12.8 1.17 8.44 2.12 13.54 3.63 19.6 1.15 4.6 4.07 14.69 4.76 16.4.35.88 1.1 2.86 1.65 4.4 1.87 5.21 17.46 24.37 18.76 23.06.84-.84 1.84-15.09 1.21-17.2-.52-1.73-.7-1.88-.81-.66-.1 1.19-.25 1.29-.59.4-.25-.66-1.76-3.18-3.36-5.6-3.96-6.01-5.14-8.49-4.65-9.78.23-.6-.07-1.98-.66-3.06-.66-1.2-1.1-4.56-1.12-8.64-.02-6.24-.17-6.82-2.24-8.8-5.48-5.25-13.48-17.65-12.69-19.7.22-.56.01-1.41-.45-1.87-.46-.46-.6-1.48-.3-2.26.48-1.24.72-1.14 2 .8 2.57 3.92 12.44 14.8 13.47 14.85.77.04 1-3.32 1-14.28 0-8.07.33-14.45.74-14.6.41-.15.98-1.35 1.27-2.67.4-1.82.32-2.11-.33-1.2-.47.66-.86.84-.88.4-.01-.44-.9-1.88-1.97-3.2C32 174 27.39 166.52 28.86 165.61c.69-.43.71-.75.072-1.14-.49-.3-.89-1.25-.89-2.1 0-.854-.387-1.553-.857-1.553s-.66.63-.42 1.4m355.22 9.74c-.19.18-.354 5.94-.36 12.8-.007 6.86-.36 13.01-.79 13.67-.576.89-.78.39-.79-1.93-.006-1.73-.245-2.9-.53-2.62-.283.29-1.354-1.14-2.38-3.16-8.96-17.7-16.284-15.02-16.3 5.96 0 4.54-.4 9-.88 9.9-.484.91-.88 2.95-.88 4.54 0 3.14-2.45 7.31-4.294 7.31-.8 0-1.15-.95-1.15-3.2 0-1.76-.37-3.2-.83-3.2-.45 0-.76-.81-.67-1.8.3-3.47-.08-5.85-.77-4.77-.45.7-1.25-.16-2.58-2.8-1.06-2.11-2.11-4.01-2.34-4.23-.78-.77-3.31-5.21-3.75-6.6-.24-.77-.76-1.4-1.15-1.4-.39 0-.7-.42-.7-.94 0-3.16-4.21-4.18-6.4-1.55-.48.58-2.05 1.55-8.55 5.3-5.42 3.13-5.63 3.56-5.98 11.98-.11 2.64-.42 5.16-.69 5.6-.27.44-.55 1.87-.64 3.17-.08 1.3-.41 2.6-.74 2.88l-7.39 6.44c-3.74 3.26-8.72 7.52-11.06 9.45-4.21 3.48-4.37 6.06-.28 4.48 8.09-3.13 10.13-1.79 10.9 7.19.73 8.41.37 8.31 10.91 2.98 19.89-10.07 29.93-17.35 44.11-31.98 8.1-8.36 9.97-9.48 6.48-3.9-1.83 2.92-1.87 3.13-.36 1.79.94-.84 1.71-1.25 1.71-.92 0 .82-2.58 5.38-3.77 6.66-.53.57-1.57 2.05-2.29 3.28-4.09 6.93-24.66 24.65-35.93 30.96-.88.49-3.04 1.73-4.8 2.75-3.74 2.17-12.07 6.36-17.2 8.65-1.98.89-6.54 3.99-10.14 6.88-6.73 5.42-7.87 5.99-8.46 4.27-.19-.55-.6 5.84-.92 14.2-.32 8.36-.92 17.7-1.34 20.75-.44 3.23-.46 5.84-.05 6.25 1.66 1.66 27.9-10.24 40.76-18.49 4.44-2.85 4.71-3.24 3.2-4.75-.74-.747-.74-.96.03-.96.73 0 .77-.406.16-1.547-1.49-2.78-.98-10.94.93-15.06 5.58-12.03 33.18-40.19 39.39-40.19 3.28 0 5.64-9.09 7.61-29.2.46-4.69.65-5.24 1.2-3.35.75 2.59.02 21.44-1.15 29.74-.44 3.08-.79 6.46-.8 7.52 0 1.05-.31 2.31-.69 2.8-1.06 1.37-1.64 4.43-.91 4.88.35.22.45 1.15.21 2.07-.34 1.28-.6 1.42-1.16.6-.45-.67-.53.05-.2 1.92.4 2.33.24 3.1-.76 3.48-.89.34-1.13 1.07-.8 2.41.66 2.63-.28 5.14-1.31 3.49-.48-.773-.57-.15-.25 1.816.27 1.64.12 3.44-.33 4-.45.55-1.06 2.53-1.37 4.4-.31 1.87-.89 3.6-1.29 3.843-3.13 1.93-.46 2.89 7.27 2.63 4.85-.17 8.13.04 8.32.52.17.44.33.08.35-.8.04-2.18 1.99-7.6 2.73-7.6.33 0 .61-.7.61-1.55 0-.86.36-1.78.8-2.05.44-.27.8-1.37.8-2.44s.36-1.96.8-1.96c.44 0 .8-1.44.8-3.2 0-1.76.36-3.2.8-3.2.44 0 .8-.88.8-1.95 0-1.08.36-2.18.8-2.45.44-.27.8-1.92.8-3.65s.36-3.15.8-3.15c.44 0 .8-1.95.8-4.33 0-2.76.36-4.46 1-4.67.77-.26 1.05-7.69 1.22-32.76l.23-32.42-8.88.09c-4.88.05-9.03.24-9.22.43m-61.15 7.05v5.84l3.8-2.02c7.01-3.73 9.38-5.21 8.35-5.21-.56 0-1.99-.9-3.18-2-1.19-1.1-2.7-2.03-3.37-2.06-.66-.04-2.19-.14-3.4-.23l-2.2-.17V179m-60.22 5.02c-.75.89-1.37 2.17-1.37 2.85 0 .68-.36 1.02-.8.75-.83-.51-1.03.26-.9 3.6.07 1.83.01 1.86-.66.4l-.73-1.6-.14 1.6c-.08.88-.09 2.5-.02 3.6.1 1.6-.04 1.76-.7.8-.87-1.28-1.24-.33-.89 2.28.25 1.82-2.27 6.34-4.57 8.19l-2.19 1.76 3.2-.5c12.24-1.92 15.99-3.14 15.28-4.99-.27-.69-.48-5.55-.48-10.79 0-10.33-1.26-12.32-5.03-7.93m-39.25 10.93c-.29.3-.53 1.52-.53 2.72s-.54 2.39-1.2 2.64c-.66.26-1.2 1.35-1.2 2.44 0 1.554-.47 2.02-2.2 2.22-1.34.157-2.5.94-2.97 2.01-.43.97-1.51 2.11-2.4 2.55-1.19.58.7.81 6.99.85 8.42.05 8.61.01 7.77-1.57-.48-.89-.66-1.95-.42-2.35.25-.4.09-.95-.35-1.225-.44-.27-.81-1.29-.82-2.26-.04-5.9-1.23-9.47-2.67-8.03m-124.81 10.3c.25.64.9 1.16 1.46 1.16 1.03 0 8.53 2.77 11.01 4.07.76.4 2.05.73 2.86.73s1.73.25 2.03.55c.88.88 6.36 2.63 8.27 2.64.97.01 1.98.38 2.25.82.28.44 1.54.8 2.8.8 1.27 0 2.53.36 2.8.8.28.44 1.72.8 3.2.8 1.49 0 2.93.36 3.2.8.28.44 1.84.8 3.49.8 1.65 0 3.34.33 3.75.73.42.4 2.74.92 5.16 1.15 2.42.23 6.56.83 9.2 1.32 2.64.5 8.49 1.09 13 1.32 4.51.23 8.2.75 8.2 1.15 0 .4 2.61.74 5.8.76l5.8.04-3.2 1.15c-1.76.63-3.77 1.15-4.48 1.16-.7 0-1.92.73-2.72 1.61-1.02 1.13-1.73 1.36-2.43.78-.71-.59-1.09-.37-1.4.8-.27 1.02-1.09 1.61-2.23 1.61-.99 0-2.39.526-3.1 1.17-1.11 1.005-3.67 1.62-9.82 2.364-.76.09-1.63.41-1.93.71-.3.3-1.32.55-2.26.55-.94 0-2.05.33-2.47.72-3.32 3.15-40.69 2.79-44.42-.43-2.24-1.93-4.74 1.47-4.74 6.45 0 4.88-3.74 1.33-8.66-8.21-2.19-4.25-5.3-10.07-6.91-12.93-1.61-2.86-3.12-5.83-3.37-6.6-.24-.77-.76-1.4-1.15-1.4-.39 0-.71-.45-.71-1-.01-2.42-5.46-7-8.34-7-5.66 0-8.97 2.07-10 6.25-.51 2.07-1.27 4.86-1.69 6.21-.42 1.35-.76 3.17-.76 4.04 0 .87-.45 2.07-1 2.66-.8.86-.8.97 0 .51.55-.31 1-.18 1 .29s-.32.85-.71.85c-.39 0-.91.99-1.15 2.2-.25 1.21-.68 3.13-.96 4.27-.47 1.89-.02 2.36 5.35 5.56 6.43 3.82 24.12 12.77 25.26 12.77.39 0 2.13.68 3.86 1.51 6.04 2.9 11.19 4.38 17.15 4.94 7.78.73 10.97 1.63 17.02 4.79 5.37 2.81 5.78 2.9 28.18 6.41 16.92 2.65 51.45 3.7 50.89 1.54-3.77-14.23 7.91-41.36 19.26-44.74 1.9-.57 4.28-1.35 5.29-1.74 1.01-.4 2.99-.73 4.4-.75 1.41-.01 5.8-.95 9.76-2.09s9.76-2.23 12.89-2.43l5.69-.36 4.67 4.08c2.56 2.25 7.21 5.31 10.31 6.8 5.57 2.68 11.52 5.24 12.18 5.24.19 0 .17-1.53-.04-3.4-.21-1.87-.41-3.87-.44-4.45-.03-.57-.4-.84-.81-.58-.42.26-.99-1.99-1.31-5.16-.53-5.36-.7-5.73-3.68-7.92-3.4-2.5-2.96-2.51-13.07.26-38.46 10.51-91.78 12-131 3.67-2.09-.45-5.33-1.13-7.2-1.52-1.87-.4-6.1-1.51-9.4-2.47-3.3-.97-6.99-1.95-8.21-2.18-1.21-.23-2.4-.74-2.64-1.13-.24-.39-1.08-.71-1.88-.71-1.26 0-6.61-1.87-11.66-4.07-4.64-2.03-5.93-2.28-5.47-1.1m-15.14 5.64c.56.56 1.01 1.42 1.01 1.91s.72 1.66 1.6 2.61c.88.94 1.6 2.19 1.6 2.77 0 .58.36 1.05.8 1.05.44 0 .8.47.8 1.05 0 .58.9 2.92 2 5.2 3.21 6.65 2.39 8.38-2.15 4.56-1.65-1.39-3.34-2-5.52-2-1.73 0-3.14-.36-3.14-.8 0-.44.42-.8.93-.8 1.26 0 .13-1.07-1.35-1.29-.65-.09-1.18.16-1.18.56s-.36.73-.8.73c-.44 0-.71-.42-.6-.94.11-.51-.7-1.41-1.8-1.99-1.1-.58-1.68-1.06-1.3-1.06.38-.01.25-.55-.3-1.21s-1.67-1.2-2.5-1.2c-2.03 0-2.19-7.22-.2-8.9 3.52-2.96 9.24-3.07 12.08-.23m-21 37.85c1.71 8.75 7.96 12.15 21.9 11.9 5.15-.1 5.19-.11 1.65-.71-1.98-.34-4.95-1.38-6.6-2.31l-5.99-3.39c-4.11-2.33-10.06-6.42-10.85-7.45-.35-.47-.4.4-.1 1.94m82.29 35.95c1.02 5.45 1.11 28.64.13 30.84-.39.88-.63 2.25-.53 3.05.1.79-.74 2.65-1.86 4.12l-2.04 2.67 4.98.98c4.76.93 6.66 1.23 19.37 3.1 21.15 3.1 60.96 2.55 82.6-1.15 4.38-.75 4.26.32 1.82-17.15-.89-6.37-1.62-13.54-1.62-15.94 0-2.4-.22-4.14-.49-3.87-.27.27-1.62-.59-3-1.92-4.96-4.75-8.26-5.89-13.71-4.74-10.6 2.23-72.89-.11-77.42-2.91-.37-.23-2.56-.67-4.87-.99l-4.2-.57.83 4.44m32.66-3.41c.77.2 2.03.2 2.8 0s.14-.36-1.4-.36-2.17.16-1.4.36m-128.06 8.8c1.77 3.24 3.06 3.81 3.06 1.37 0-.66-.33-1-.73-.75-.4.25-1.5-.54-2.45-1.75-1.62-2.08-1.61-2.02.11 1.13m283.06 18.34c-7.93 5.68-25.22 14.86-34.8 18.48-1.76.67-4.73 1.89-6.6 2.73-1.87.84-3.85 1.43-4.39 1.32-.65-.13-.91.57-.75 2 .94 8.32-10.94 21.4-19.43 21.4-5.22 0-14.43-10.58-11.03-12.68.59-.37.65-.97.16-1.74-.41-.65-.75-.79-.76-.31-.01.49-1.78.93-4.12 1.02-2.26.08-4.51.4-5 .72-3.08 2-41.73 3.79-58.7 2.72-24.59-1.56-32.75-2.79-53.6-8.11-7.65-1.95-7.32-1.97-10.65.7-1.74 1.4-3.5 2.34-3.91 2.09-1.32-.82-.09 6.76 1.66 10.23 3.08 6.1 8.01 11.47 12.29 13.37 5.98 2.65 6.72 2.94 12.8 4.83 3.08.96 6.32 2.03 7.2 2.38.88.35 2.68.86 4 1.13 1.32.27 3.84.85 5.6 1.27 24.46 5.94 52.52 6.05 77.6.3 3.08-.7 6.68-1.46 8-1.67 1.32-.21 3.12-.68 4-1.04.88-.36 3.22-1.12 5.2-1.69 1.98-.57 3.96-1.25 4.4-1.52.44-.27 2.24-.97 4-1.57 1.76-.59 5.46-2.11 8.22-3.37 2.76-1.26 5.14-2.29 5.28-2.29 1.78 0 22.75-12.72 29.88-18.12 7.99-6.06 10.63-8.38 19.57-17.25l9.45-9.36v-4.03c0-4.77-1.13-5.16-5.6-1.96m-144.95 32.1c.99.19 2.43.18 3.2-.02.76-.2-.05-.36-1.81-.35-1.76.01-2.39.17-1.39.36m26.79-.02c.77.2 2.03.2 2.8 0s.14-.37-1.4-.37-2.17.16-1.4.36"/>
    <path fill="#c5aad4" d="M169.8.586c-1.87.168-3.4.645-3.4 1.06 0 .415-1.96.754-4.353.754-2.394 0-4.575.36-4.847.8-.272.44-2.093.8-4.047.8-1.954 0-3.553.36-3.553.8 0 .44-1.08.8-2.4.8-1.32 0-2.4.36-2.4.8 0 .44-1.44.8-3.2.8-1.76 0-3.2.36-3.2.8 0 .44-1.08.8-2.4.8-1.32 0-2.4.36-2.4.8 0 .44-.72.8-1.6.8-.88 0-1.6.36-1.6.8 0 .44-1.08.8-2.4.8-1.32 0-2.4.36-2.4.8 0 .44-.648.8-1.44.8-1.788 0-5.745 1.788-5.754 2.6-.003.33-.636.602-1.406.605-.77.003-2.43.543-3.69 1.2-1.262.657-2.792 1.195-3.4 1.195-.61 0-1.113.27-1.116.6-.007.673-3.843 2.6-5.177 2.6-.475 0-1.383.72-2.017 1.6-.634.88-1.794 1.6-2.577 1.6-.782 0-1.423.318-1.423.707 0 .388-.63.906-1.4 1.15-1.373.436-5.812 2.954-6.6 3.744-.22.23-1.39.92-2.6 1.54-1.21.63-2.2 1.44-2.2 1.8 0 .37-.396.67-.88.67-.482 0-1.887 1.08-3.12 2.4-1.233 1.32-2.666 2.4-3.184 2.4-.518 0-2.325 1.44-4.016 3.2-1.69 1.76-3.643 3.2-4.337 3.2-.695 0-1.263.55-1.263 1.23 0 .68-.625 1.47-1.39 1.76-2.91 1.1-16.11 14.3-17.226 17.21-.294.77-1.084 1.39-1.76 1.39-.673 0-1.224.57-1.224 1.27 0 .7-1.44 2.65-3.2 4.34-1.76 1.69-3.2 3.5-3.2 4.02 0 .52-1.08 1.95-2.4 3.19-1.32 1.24-2.4 2.64-2.4 3.12 0 .49-.3.88-.665.88-.365 0-1.175.99-1.8 2.2-.622 1.21-1.313 2.38-1.534 2.6-.79.79-3.3 5.23-3.74 6.6-.24.77-.76 1.4-1.15 1.4-.39 0-.7.64-.7 1.43s-.72 1.95-1.6 2.58c-.88.64-1.6 1.55-1.6 2.02 0 1.34-1.92 5.17-2.6 5.18-.33 0-.6.51-.6 1.12 0 .6-.53 2.13-1.19 3.4-.65 1.26-1.19 2.92-1.2 3.69 0 .77-.27 1.4-.6 1.4-.81.01-2.6 3.96-2.6 5.75 0 .79-.36 1.44-.8 1.44-.44 0-.8 1.08-.8 2.4 0 1.32-.36 2.4-.8 2.4-.44 0-.8.72-.8 1.6 0 .88-.36 1.6-.8 1.6-.44 0-.8 1.26-.8 2.8 0 1.54-.36 2.8-.8 2.8-.44 0-.8 1.46-.8 3.24 0 1.96-.31 3.06-.8 2.76-.46-.29-.8.53-.8 1.95 0 1.35-.36 2.45-.8 2.45-.44 0-.8 1.6-.8 3.56s-.36 3.78-.8 4.05c-.44.27-.8 2.39-.8 4.71s-.25 4.47-.55 4.77c-.3.3-.66 1.35-.79 2.33s-.41 2.68-.61 3.78c-.2 1.1-.18 1.55.06 1s.95-1 1.57-1c.62 0 1.13-.27 1.13-.6 0-.33 3.42-.48 7.6-.34l7.6.26.09 4.14.1 4.14.66-3.2c.37-1.76.69-4.78.71-6.71.03-1.93.38-4.81.78-6.4.4-1.59 1.16-4.87 1.68-7.29 1.07-4.98 1.55-6.76 4.08-15.2 1-3.3 2.1-6.34 2.46-6.76.36-.42.66-1.41.66-2.21s.34-2.08.75-2.84c.41-.76 2.9-5.89 5.53-11.39 19.24-40.31 53.62-72.69 95.28-89.8 4.28-1.75 5.36-2.15 10-3.69 28.68-9.45 57.15-12.06 84.4-7.72 17.32 2.76 27.38 5 30.59 6.82.77.44 2.04.79 2.84.79.8 0 1.8.29 2.21.64.42.35 2.2 1.12 3.96 1.72 3.54 1.19 9.5 3.8 16.8 7.35 4.73 2.3 5.65 2.81 13.6 7.48 24.54 14.41 51.03 42.05 64.39 67.2 1.17 2.2 2.51 4.72 2.98 5.6 1.12 2.09 5.85 12.34 6.64 14.4.34.88 1.38 3.53 2.3 5.9.92 2.37 1.68 4.96 1.68 5.76 0 .8.36 1.67.8 1.94.44.27.8 1.28.81 2.25.01.96.58 3.37 1.27 5.35 1.48 4.23 2.41 8.93 3.7 18.8.68 5.16 1.07 6.53 1.38 4.85.44-2.32.52-2.35 5.04-2.14 5.84.27 13.4-.66 13.4-1.65 0-.41-.27-.58-.6-.38-.33.21-.47-1.26-.31-3.25.2-2.51.02-3.46-.6-3.07-.6.37-.89-.73-.89-3.5 0-2.23-.36-4.05-.8-4.05-.44 0-.8-1.8-.8-4s-.27-4-.6-4c-.73 0-2.59-5.73-2.59-7.98 0-.89-.36-1.61-.8-1.61-.44 0-.8-1.24-.8-2.76s-.36-2.97-.8-3.25c-.44-.27-.8-1.19-.8-2.04s-.36-1.55-.8-1.55c-.44 0-.8-1.08-.8-2.4 0-1.32-.36-2.4-.8-2.4-.44 0-.8-.9-.8-2s-.36-2-.8-2c-.44 0-.8-.54-.8-1.2 0-.66-.36-1.2-.8-1.2-.44 0-.8-.6-.8-1.33 0-1.8-2.54-7.47-3.35-7.47-.35 0-.64-.53-.64-1.18 0-1.61-3.36-8.42-4.16-8.42-.35 0-.64-.72-.64-1.6 0-.88-.36-1.6-.8-1.6-.44 0-.8-.48-.8-1.07 0-.59-.72-1.73-1.6-2.52-.88-.79-1.6-1.93-1.6-2.52 0-.59-.36-1.07-.8-1.07-.44 0-.8-.35-.8-.79 0-.74-1.52-2.84-3.8-5.24-.55-.58-1-1.4-1-1.83 0-.43-1.8-2.61-4-4.86-2.2-2.25-4-4.43-4-4.85 0-1.95-24.53-26.43-26.49-26.43-.45 0-2.21-1.44-3.9-3.2-1.69-1.76-3.56-3.2-4.16-3.2-.59 0-1.6-.72-2.24-1.6-.63-.88-1.61-1.6-2.17-1.6s-1.02-.3-1.02-.67c0-.36-.99-1.17-2.2-1.79-1.21-.62-2.74-1.67-3.4-2.33-1.46-1.46-5.49-3.94-7.4-4.54-.77-.25-1.4-.76-1.4-1.15 0-.39-.72-.71-1.6-.71-.88 0-1.6-.36-1.6-.8 0-.44-.72-.8-1.6-.8-.88 0-1.6-.36-1.6-.8 0-.44-.72-.8-1.6-.8-.88 0-1.6-.34-1.6-.75 0-.62-2.48-1.86-4-2.01-1.38-.14-7.99-3.28-7.99-3.81 0-.35-1.08-.63-2.4-.63-1.32 0-2.4-.36-2.4-.8 0-.44-.7-.8-1.55-.8-.85 0-1.77-.36-2.04-.8-.27-.44-1.37-.8-2.44-.8s-1.95-.36-1.95-.8c0-.44-1.08-.8-2.4-.8-1.32 0-2.4-.36-2.4-.8 0-.44-1.44-.8-3.2-.8-1.76 0-3.2-.36-3.2-.8 0-.44-.88-.8-1.95-.8s-2.18-.36-2.45-.8c-.27-.44-2.09-.8-4.05-.8s-3.56-.32-3.56-.72c0-.4-1.89-.92-4.2-1.14-2.31-.23-6.18-.78-8.6-1.22-4.1-.75-53.04-1.01-60.6-.33M114.4 71.17c4.3 6.07 12.83 11.65 24.42 15.99 2.64.99 5.43 2.13 6.19 2.53.77.403 2.12.734 3.01.734.9 0 2.25.33 3.01.73.77.4 3.55 1.16 6.19 1.69 2.64.526 5.85 1.28 7.12 1.67 4.75 1.46 8.04.9 9.96-1.686 1.14-1.55 2.48-2.4 3.76-2.4 1.09 0 3.6-.76 5.58-1.697 3.944-1.85 5.74-3.65 2.9-2.91-.95.24-1.724.14-1.724-.24 0-1.74-4.74-5.24-8.37-6.19-2.19-.57-4.22-1.43-4.51-1.91-.3-.48-.97-.62-1.48-.3-.52.32-1.55.07-2.29-.55-1.29-1.08-5.19-2.41-9.9-3.38-1.18-.24-2.622-.92-3.21-1.51-2.195-2.19-25.26-3.33-36.044-1.77-3.3.48-4.6.41-4.6-.25 0-.5-.384-.91-.853-.91-.47 0-.1 1.06.81 2.35m-13.79 3.46c-1.44 2.21-3.78 2.97-3.78 1.23 0-.52-.45-.33-1.01.43-2.34 3.2-9.39 4.16-9.39 1.29 0-.81-.33-1.67-.72-1.92-1.99-1.23 3.22 11.04 7.18 16.91 7.35 10.88 20.11 18.88 31.95 20.04 5.26.52 7.2 1.65 5.25 3.08-1.15.84-1.1.99.46 1.4 2.52.66 1.34 1.79-9.17 8.8-12.17 8.11-12.82 8.88-8.89 10.52 2.86 1.2 3.23 1.18 6.64-.43 3.39-1.6 12.81-7.6 13.69-8.73 2.55-3.27 11.48-6.27 13.67-4.59 2.76 2.12 4.68 16.95 2.78 21.47-.45 1.08.32 1.45 4.5 2.16 7.92 1.35 22.4 2.76 25.04 2.43 2.56-.32 3.79-2.79 1.95-3.93-.56-.34-1.11-2.24-1.22-4.21-.11-1.96-.56-4.25-.99-5.07-2.27-4.31-11.21-23.34-11.69-24.89-.75-2.42-2.02-2.98-10.45-4.6-3.96-.76-7.54-1.7-7.96-2.09-.42-.39-1.44-.7-2.27-.7-4.44 0-21.54-7.22-28.83-12.17-5.22-3.54-11.75-9.66-11.75-11.01 0-.45-.36-.82-.8-.82-.44 0-.8-.54-.8-1.2 0-.66-.34-1.2-.75-1.2s-.86-.98-1-2.17l-.25-2.18-1.42 2.18m91.93 8.39c-.21.34 1.01.62 2.71.62 1.71 0 2.66-.27 2.14-.61-1.25-.79-4.36-.8-4.84-.01m9.08 2.83c0 .14 1.17 1.31 2.6 2.6l2.6 2.35-2.35-2.6c-2.19-2.42-2.85-2.97-2.85-2.35m17.6 43.68c0 1.36-.36 2.47-.8 2.47-.44 0-.8.72-.8 1.6 0 .88-.36 1.6-.8 1.6-.44 0-.8.7-.8 1.56s-.36 1.77-.8 2.05c-.44.27-.8 1.16-.8 1.98 0 .82-.28 1.61-.63 1.75-.88.38-4.31 6.39-3.89 6.82.19.19 4.8.06 10.23-.3 5.43-.36 8.53-.76 6.88-.9-2.89-.24-3-.37-3-3.24 0-1.64-.35-3.33-.77-3.76-.42-.42-1.05-3.61-1.4-7.09-.64-6.33-2.64-9.77-2.64-4.53m19 17.43c.99.19 2.61.19 3.6 0 .99-.19.18-.35-1.8-.35s-2.79.16-1.8.35M103 156.5c-2.84 1.5-7.06 6.49-9.33 11.04-1 2.01-2.16 3.65-2.57 3.65-.41 0-.74 3.38-.74 7.51 0 7.77 1.44 13.3 3.46 13.3.58 0 2.53.72 4.35 1.6 1.83.88 3.8 1.6 4.39 1.6.6 0 1.43.3 1.84.66.42.37 2.38 1.14 4.36 1.71 1.98.58 5.58 1.67 8 2.43 25.45 8.02 50.76 11.3 85.2 11.05 12.15-.08 17.97-.33 14-.6-4.31-.28-6.21-.66-5.19-1.04.89-.33 1.97-1.41 2.4-2.4.49-1.12 1.63-1.91 3-2.06 1.732-.2 2.2-.67 2.2-2.23 0-1.09.54-2.18 1.2-2.43.672-.26 1.2-1.45 1.2-2.74 0-1.25.5-2.56 1.11-2.91.75-.43 1.27-2.86 1.59-7.44 1.01-14.78 1.27-15.8 5.63-22.4 2.1-3.18 1.13-3.46-1.4-.4-.43.52-.808.45-1.07-.2-.3-.74-3.83-1-13.77-1H199.5l-2.94 3.51c-1.61 1.93-5.18 5.01-7.92 6.84-9.22 6.16-13.72 2.77-9.33-7.02 1.917-4.28 2.1-4.11-5.06-4.62-3.24-.24-11.563-1.33-18.5-2.43l-12.6-2.01-2.454 2.06c-3.747 3.16-12.43 1.77-22.52-3.59-2.12-1.12-12.7-.73-15.16.57m-61.32 47.3c.12 12.18.14 12.35.71 5 .87-11.43.86-17.6-.04-17.6-.51 0-.76 4.65-.67 12.6m56.21 5.39c.525 1.53 1.202 3.03 1.504 3.33.3.3.548 1.32.548 2.26 0 .94.293 2.05.654 2.46 1.25 1.452 5.68 17.23 5.85 20.852.08 1.88.17 1.98.45.5.39-2.05 1.54-2.29 3.37-.71 3.73 3.22 41.1 3.58 44.42.435.41-.39 1.52-.72 2.46-.72s1.95-.24 2.253-.55c.3-.3 1.17-.62 1.93-.71 6.14-.74 8.7-1.36 9.817-2.36.71-.64 2.11-1.17 3.1-1.17 1.14 0 1.962-.59 2.23-1.61.31-1.17.7-1.393 1.41-.804.692.58 1.4.35 2.423-.78.8-.88 2.02-1.6 2.72-1.61.71-.01 2.72-.53 4.48-1.16l3.2-1.15-5.8-.04c-3.19-.02-5.8-.365-5.8-.765s-3.69-.915-8.2-1.15c-4.51-.23-10.36-.82-13-1.32-2.64-.49-6.78-1.09-9.2-1.32-2.42-.23-4.74-.75-5.16-1.15-.42-.4-2.11-.73-3.75-.73s-3.21-.36-3.482-.8c-.274-.44-1.714-.8-3.2-.8-1.49 0-2.93-.36-3.2-.8-.274-.44-1.534-.8-2.8-.8-1.27 0-2.53-.36-2.8-.8-.274-.44-1.285-.804-2.25-.81-1.91-.014-7.39-1.76-8.27-2.64-.3-.3-1.214-.55-2.026-.55s-2.1-.327-2.87-.727c-2.48-1.3-9.98-4.07-11.01-4.07-.79 0-.8.58-.043 2.78m-24.04-.06c-4.91 1.3-5.9 2.47-5.9 6.97 0 3.28.24 3.9 1.51 3.9.83 0 1.95.54 2.5 1.2.55.66.68 1.21.3 1.21-.384.01.2.49 1.3 1.07 1.1.58 1.91 1.48 1.8 1.99-.11.52.16.94.6.94.44 0 .8-.33.8-.73 0-.4.53-.65 1.18-.56 1.486.22 2.61 1.29 1.36 1.29-.51 0-.93.36-.93.8 0 .44 1.41.8 3.14.8 2.18 0 3.86.61 5.51 2 4.54 3.82 5.35 2.1 2.147-4.55-1.1-2.28-2-4.62-2-5.2s-.36-1.05-.8-1.05c-.44 0-.8-.47-.8-1.05 0-.58-.72-1.82-1.6-2.77-.88-.94-1.6-2.12-1.6-2.61 0-2.81-4.45-4.72-8.49-3.65"/>
  </g>
</svg>
